PathFileType	4	(X/Y/Z)	/Users/niels/Desktop/University/Third Semester/Perception and Action/Exam/Gymnastics Motion Tracking/Code for Gym Tracking/Analyzed Data/Start Salto/stsalto_bad_id1_1_Sports2D/stsalto_bad_id1_1_Sports2D_px_person00.trc
DataRate	CameraRate	NumFrames	NumMarkers	Units	OrigDataRate	OrigDataStartFrame	OrigNumFrames
29.774436090225564	29.774436090225564	9	22	m	29.774436090225564	49	133
Frame#	Time	Hip			RHip			RKnee			RAnkle			RBigToe			RSmallToe			RHeel			LHip			LKnee			LAnkle			LBigToe			LSmallToe			LHeel			Neck			Head			Nose			RShoulder			RElbow			RWrist			LShoulder			LElbow			LWrist		
		X1	Y1	Z1	X2	Y2	Z2	X3	Y3	Z3	X4	Y4	Z4	X5	Y5	Z5	X6	Y6	Z6	X7	Y7	Z7	X8	Y8	Z8	X9	Y9	Z9	X10	Y10	Z10	X11	Y11	Z11	X12	Y12	Z12	X13	Y13	Z13	X14	Y14	Z14	X15	Y15	Z15	X16	Y16	Z16	X17	Y17	Z17	X18	Y18	Z18	X19	Y19	Z19	X20	Y20	Z20	X21	Y21	Z21	X22	Y22	Z22
49	1.6457070707070707	1.1134049676993942	-0.28242028557970716	0.0	1.1184292173188628	-0.2835334391436337	0.0	0.9588717466196953	-0.31349119183819396	0.0	0.8387933321403829	-0.24904725832957164	0.0	0.7819862877603433	-0.28558820922058337	0.0	0.7812714868094331	-0.274537463098886	0.0	0.8260013669596474	-0.23499359607400994	0.0	1.1106371679365374	-0.28248371770040026	0.0	0.9698360358429515	-0.29499672014548867	0.0	0.9259881997440462	-0.15733125976018494	0.0	0.8586019583260243	-0.1658618550477953	0.0	0.8720857428674206	-0.16121799127625888	0.0	0.9282273634543322	-0.14215747663850328	0.0	1.1035084709818486	-0.45335629581706677	0.0	1.041443046001312	-0.5174475568709601	0.0	1.044319624713111	-0.46381551899237017	0.0	1.1143474869151735	-0.4372936945016964	0.0	1.0825918454744503	-0.3483858029510328	0.0	0.9967845675846945	-0.3304351359099351	0.0	1.1105293290420006	-0.4438702871871271	0.0	1.0878432490532506	-0.3527201699171339	0.0	0.996191752288382	-0.3427808814457503	0.0
50	1.6792929292929293	1.128993375679646	-0.28246748049774373	0.0	1.1338262919925435	-0.2833109369879427	0.0	0.9731252749756583	-0.3028895863109594	0.0	0.8593798656780742	-0.22642736315557782	0.0	0.7984996526655506	-0.25976015649449563	0.0	0.7982694048230595	-0.2500496615706327	0.0	0.8478416455923979	-0.2113301730775977	0.0	1.1260000898284854	-0.2825376136470699	0.0	0.9851269159468263	-0.2832958707723213	0.0	0.9569971469882705	-0.1407814304275555	0.0	0.8950241906431181	-0.1399310470286263	0.0	0.9064984292880109	-0.13549858054352218	0.0	0.9598872216812457	-0.1280943887034963	0.0	1.1066950092799959	-0.45318970297642774	0.0	1.0402894658612647	-0.5126068103670802	0.0	1.0472926584056705	-0.4599450609251641	0.0	1.1181901110435293	-0.43762580768160786	0.0	1.0924997005766266	-0.34596769226816415	0.0	1.0066741757480964	-0.32399829521896734	0.0	1.1114246506785304	-0.4446607130131805	0.0	1.0947456814877792	-0.350793306682976	0.0	1.0050337086244263	-0.3427833401226407	0.0
51	1.712878787878788	1.1437850580086741	-0.2828171162674479	0.0	1.1483687783896614	-0.28393510206024425	0.0	0.9879193110441234	-0.29259716061189334	0.0	0.8808617200747907	-0.20480038307388274	0.0	0.8165391113420871	-0.23490005611212042	0.0	0.8171748990522504	-0.22637991943521785	0.0	0.8708131508393019	-0.18835547607722322	0.0	1.1397498398544683	-0.2831044138112277	0.0	1.0009118545202587	-0.2720554606263186	0.0	0.9887919874668673	-0.12739515121222586	0.0	0.9321902988596392	-0.11538128940537742	0.0	0.9410784439600322	-0.1115423658428924	0.0	0.9922020424126669	-0.11674552876321306	0.0	1.1101490756071097	-0.45239047125696136	0.0	1.0396070447095518	-0.5067504844761026	0.0	1.050739140857708	-0.4551221196262353	0.0	1.122749414132515	-0.4395183950217173	0.0	1.1023164863200023	-0.34422137469652664	0.0	1.0165833844724357	-0.31742520133989904	0.0	1.111796928353299	-0.44424851152977013	0.0	1.0995730033595412	-0.34989600180444486	0.0	1.0136908879033706	-0.34363739944874117	0.0
52	1.7464646464646465	1.1577385505278377	-0.2840031095241619	0.0	1.162243968093802	-0.28556423167820516	0.0	1.00312874162498	-0.28253843481603663	0.0	0.9028417608708239	-0.18475731976394458	0.0	0.8362281424378045	-0.2114009764025841	0.0	0.8380544071511818	-0.20365183996466116	0.0	0.8943010188514723	-0.16713395582134544	0.0	1.1520252656539558	-0.28451916630435986	0.0	1.0170088950282294	-0.26122873532989305	0.0	1.0207072488807227	-0.11726603743217506	0.0	0.9687531126445655	-0.09357711436769789	0.0	0.975540771838152	-0.09106577587320942	0.0	1.024758023773927	-0.10777406478417782	0.0	1.1136288224582462	-0.45116454318937876	0.0	1.0393132115852353	-0.5000534748949756	0.0	1.0550900137071717	-0.44956209659649754	0.0	1.1278216371850245	-0.44235397439903945	0.0	1.111859170883554	-0.3432186032443711	0.0	1.026470942374258	-0.3109291831074079	0.0	1.112415707202822	-0.44273357614595865	0.0	1.102249366858669	-0.35013504688647445	0.0	1.022225961408232	-0.3445178597319319	0.0
53	1.780050505050505	1.1710470889939715	-0.28642115293125703	0.0	1.1758274081174214	-0.28820937528832014	0.0	1.0189556066979697	-0.2724918144334538	0.0	0.9254776563189526	-0.16636603855314339	0.0	0.8579451114784598	-0.18892563886549105	0.0	0.8612043924762897	-0.18145085726877205	0.0	0.9183425188133012	-0.1480959378060568	0.0	1.1633269669463946	-0.28697442106169696	0.0	1.0336968618649647	-0.2505668996931501	0.0	1.052948817876361	-0.10977296214750759	0.0	1.0049749446439717	-0.07588127681224859	0.0	1.0108517867467333	-0.07509246616168239	0.0	1.057924931594004	-0.10052911965254216	0.0	1.1169270602016559	-0.4497473156049266	0.0	1.0393506097344625	-0.4926020263563919	0.0	1.0605725951224305	-0.4434678782557533	0.0	1.133001018946566	-0.44503565022040775	0.0	1.1212339851920845	-0.342735172622658	0.0	1.0365928595023113	-0.30468110747424	0.0	1.114113152077111	-0.44070712573475396	0.0	1.1034703325524533	-0.35144275501820604	0.0	1.0306939580425312	-0.34467945859907884	0.0
54	1.8136363636363637	1.1840201230343685	-0.2900830865044906	0.0	1.1894441398009792	-0.29166555197875205	0.0	1.0357088017675045	-0.2622737106727377	0.0	0.9493279867916746	-0.14936876622356066	0.0	0.8819440589798289	-0.1666560641765366	0.0	0.886807115662346	-0.1590144910630967	0.0	0.9433685208439213	-0.1309156369352947	0.0	1.1742217336996283	-0.29032729531477175	0.0	1.051729107416729	-0.2400037835720105	0.0	1.0862318767018304	-0.10409999547638674	0.0	1.0422047310836935	-0.06309036767746568	0.0	1.0484620377571583	-0.06376636175214134	0.0	1.0923360743969759	-0.09452586093320588	0.0	1.1199743929722206	-0.44820161761029165	0.0	1.0396699115256183	-0.48430321707914914	0.0	1.0668289285862866	-0.43688266749656757	0.0	1.1379039770557131	-0.4466881360760119	0.0	1.1307359744931595	-0.3423739400798213	0.0	1.0473187174625185	-0.29865513169991587	0.0	1.11735693858654	-0.4388440911517638	0.0	1.1042261274072487	-0.3536318058954239	0.0	1.0389081389055566	-0.3436936401560762	0.0
55	1.8472222222222223	1.1969453313373606	-0.29459579164197525	0.0	1.2031500969800852	-0.2955595274885992	0.0	1.053451442797388	-0.2519975730747699	0.0	0.9748562861162138	-0.1336055543256753	0.0	0.9080783006880006	-0.1438962248198768	0.0	0.9146567992910186	-0.13588841782203553	0.0	0.9697287220057598	-0.11517182324651569	0.0	1.1852684146355466	-0.29407725423933906	0.0	1.0718432616596072	-0.22986047698781706	0.0	1.1209559195163787	-0.09970634288405328	0.0	1.0815004100225558	-0.05497506764732939	0.0	1.0889307444227188	-0.05653720799871663	0.0	1.1281387374553835	-0.0896892495458087	0.0	1.1228397425082086	-0.44642583676081743	0.0	1.040274381633966	-0.4751025533538813	0.0	1.073111391352533	-0.4298827717487121	0.0	1.142303454053912	-0.4468500316492057	0.0	1.1405775281874313	-0.34177680282044426	0.0	1.0588419144396735	-0.2927932097375856	0.0	1.122067326532263	-0.4375541316946193	0.0	1.1053004105927324	-0.3564196410874486	0.0	1.046484291340081	-0.34152233531090564	0.0
56	1.880808080808081	1.2100384482653004	-0.2993065651925697	0.0	1.2167054991263613	-0.2994683321684969	0.0	1.0719439565546218	-0.24206230265041087	0.0	1.0021476553004196	-0.1191227849816212	0.0	0.9360524656978593	-0.1204919367905454	0.0	0.9443706436833547	-0.11244831009686912	0.0	0.9975932839125822	-0.10089173256769866	0.0	1.1971501014690766	-0.29758744298882184	0.0	1.094205714522131	-0.2206388010728712	0.0	1.156867029808279	-0.09643661667032997	0.0	1.1229206105061273	-0.05044238737770482	0.0	1.1313233415408541	-0.05249238457331379	0.0	1.164886110339882	-0.08624608731760869	0.0	1.1257181031485621	-0.44432871771165566	0.0	1.0413003121550748	-0.4652006361615718	0.0	1.0789415710114554	-0.42273985618752913	0.0	1.1462289341706768	-0.4453937290059113	0.0	1.1507223691223807	-0.34084864509291835	0.0	1.071104081907765	-0.28722491144482387	0.0	1.1277150794547395	-0.436834496612856	0.0	1.107043692699582	-0.3594738911836483	0.0	1.0532610318270343	-0.33837898587844695	0.0
57	1.9143939393939395	1.223342360542246	-0.30357337529110956	0.0	1.2296792231800904	-0.30305205833202065	0.0	1.0907977234490307	-0.23295153121099574	0.0	1.0309053731830364	-0.106060209786138	0.0	0.9656177476271067	-0.09718667706862032	0.0	0.9754427659473504	-0.08999141559048426	0.0	1.0269605259258292	-0.0884796321279164	0.0	1.2105523104793803	-0.3003974835535275	0.0	1.118279901872335	-0.21276320243148317	0.0	1.193169425897552	-0.09450064706548161	0.0	1.165643650442202	-0.048053696637900385	0.0	1.173831293374175	-0.05066497852685883	0.0	1.2017688382857308	-0.08465005377965572	0.0	1.128823768585341	-0.44192246185008516	0.0	1.0428974566536444	-0.45499132001773673	0.0	1.0843754089135267	-0.4157333488655147	0.0	1.1498944501961335	-0.4424688091712127	0.0	1.1608692607513327	-0.33980516110219955	0.0	1.0839132110028726	-0.28222963927349065	0.0	1.133619665978534	-0.43642902272378065	0.0	1.1094082413678776	-0.3624975358203818	0.0	1.0594492510418791	-0.33460424469552413	0.0
